<svg xmlns="http://www.w3.org/2000/svg" width="640" height="400" viewBox="0 0 640 400" fill="none">
  <defs>
    <linearGradient id="bg" x1="32" y1="18" x2="608" y2="382" gradientUnits="userSpaceOnUse">
      <stop stop-color="#E0F2FE" />
      <stop offset="0.55" stop-color="#EEF2FF" />
      <stop offset="1" stop-color="#ECFDF5" />
    </linearGradient>
    <linearGradient id="accent" x1="210" y1="110" x2="450" y2="320" gradientUnits="userSpaceOnUse">
      <stop stop-color="#0EA5E9" />
      <stop offset="1" stop-color="#22C55E" />
    </linearGradient>
  </defs>
  <rect x="24" y="20" width="592" height="360" rx="40" fill="url(#bg)" />
  <circle cx="520" cy="120" r="64" fill="#BAE6FD" fill-opacity="0.7" />
  <circle cx="160" cy="100" r="52" fill="#A7F3D0" fill-opacity="0.55" />
  <rect x="122" y="92" width="396" height="244" rx="28" fill="#FFFFFF" fill-opacity="0.94" stroke="#D9E2F2" stroke-width="6" />
  <rect x="148" y="118" width="126" height="192" rx="20" fill="#F1F5FF" />
  <rect x="166" y="144" width="90" height="14" rx="7" fill="#94A3B8" />
  <rect x="166" y="170" width="104" height="14" rx="7" fill="#CBD5E1" />
  <rect x="166" y="196" width="96" height="14" rx="7" fill="#CBD5E1" opacity="0.85" />
  <rect x="166" y="230" width="108" height="40" rx="14" fill="#E0F2FE" />
  <rect x="296" y="118" width="198" height="52" rx="18" fill="#F8FAFC" stroke="#E2E8F0" stroke-width="4" />
  <circle cx="326" cy="144" r="14" fill="url(#accent)" />
  <path d="M326 136V152M318 144H334" stroke="#FFFFFF" stroke-width="7" stroke-linecap="round" />
  <rect x="350" y="136" width="122" height="12" rx="6" fill="#64748B" />
  <rect x="296" y="184" width="92" height="60" rx="18" fill="#EEF2FF" stroke="#D9E2F2" stroke-width="4" />
  <rect x="310" y="206" width="64" height="12" rx="6" fill="#64748B" />
  <rect x="402" y="184" width="92" height="60" rx="18" fill="#ECFDF5" stroke="#D9E2F2" stroke-width="4" />
  <rect x="416" y="206" width="64" height="12" rx="6" fill="#64748B" />
  <rect x="296" y="256" width="198" height="54" rx="18" fill="#FFFFFF" stroke="#D9E2F2" stroke-width="4" />
  <path d="M316 284L326 294L346 272" stroke="#0EA5E9" stroke-width="10" stroke-linecap="round" stroke-linejoin="round" />
  <rect x="360" y="276" width="118" height="12" rx="6" fill="#94A3B8" />
</svg>

