<svg xmlns="http://www.w3.org/2000/svg" width="640" height="400" viewBox="0 0 640 400" fill="none">
  <defs>
    <linearGradient id="bg" x1="24" y1="24" x2="616" y2="376" gradientUnits="userSpaceOnUse">
      <stop stop-color="#EEF2FF" />
      <stop offset="0.55" stop-color="#E0F2FE" />
      <stop offset="1" stop-color="#ECFDF5" />
    </linearGradient>
    <linearGradient id="accent" x1="170" y1="120" x2="510" y2="320" gradientUnits="userSpaceOnUse">
      <stop stop-color="#2563EB" />
      <stop offset="1" stop-color="#22C55E" />
    </linearGradient>
  </defs>
  <rect x="24" y="20" width="592" height="360" rx="40" fill="url(#bg)" />
  <circle cx="500" cy="120" r="70" fill="#BAE6FD" fill-opacity="0.65" />
  <circle cx="160" cy="120" r="56" fill="#A7F3D0" fill-opacity="0.55" />
  <rect x="126" y="100" width="388" height="256" rx="28" fill="#FFFFFF" fill-opacity="0.94" stroke="#D9E2F2" stroke-width="6" />
  <rect x="152" y="128" width="132" height="48" rx="18" fill="#EEF2FF" stroke="#D9E2F2" stroke-width="4" />
  <rect x="302" y="128" width="186" height="48" rx="18" fill="#ECFDF5" stroke="#D9E2F2" stroke-width="4" />
  <path d="M188 152H252" stroke="#94A3B8" stroke-width="10" stroke-linecap="round" />
  <path d="M330 152H456" stroke="#94A3B8" stroke-width="10" stroke-linecap="round" />
  <path d="M170 316V214" stroke="#CBD5E1" stroke-width="10" stroke-linecap="round" />
  <path d="M210 316V240" stroke="#CBD5E1" stroke-width="10" stroke-linecap="round" />
  <path d="M250 316V260" stroke="#CBD5E1" stroke-width="10" stroke-linecap="round" />
  <path d="M290 316V226" stroke="#CBD5E1" stroke-width="10" stroke-linecap="round" />
  <path d="M330 316V276" stroke="#CBD5E1" stroke-width="10" stroke-linecap="round" />
  <path
    d="M170 280L210 254L250 270L290 234L330 260"
    stroke="url(#accent)"
    stroke-width="10"
    stroke-linecap="round"
    stroke-linejoin="round"
  />
  <circle cx="458" cy="290" r="46" fill="url(#accent)" fill-opacity="0.18" stroke="url(#accent)" stroke-width="8" />
  <path
    d="M454 272H468M452 290H476C476 306 468 318 454 318C444 318 436 312 436 304"
    stroke="#0F172A"
    stroke-width="10"
    stroke-linecap="round"
    stroke-linejoin="round"
  />
</svg>

