<svg xmlns="http://www.w3.org/2000/svg" width="640" height="400" viewBox="0 0 640 400" fill="none">
  <defs>
    <linearGradient id="bg" x1="24" y1="24" x2="616" y2="376" gradientUnits="userSpaceOnUse">
      <stop stop-color="#E0F2FE" />
      <stop offset="0.55" stop-color="#ECFDF5" />
      <stop offset="1" stop-color="#EEF2FF" />
    </linearGradient>
    <linearGradient id="accent" x1="210" y1="110" x2="470" y2="330" gradientUnits="userSpaceOnUse">
      <stop stop-color="#0EA5E9" />
      <stop offset="1" stop-color="#2563EB" />
    </linearGradient>
  </defs>
  <rect x="24" y="20" width="592" height="360" rx="40" fill="url(#bg)" />
  <circle cx="510" cy="120" r="70" fill="#BAE6FD" fill-opacity="0.65" />
  <circle cx="160" cy="120" r="56" fill="#A7F3D0" fill-opacity="0.55" />
  <rect x="230" y="92" width="180" height="276" rx="30" fill="#FFFFFF" fill-opacity="0.94" stroke="#D9E2F2" stroke-width="6" />
  <rect x="258" y="134" width="124" height="186" rx="20" fill="#F8FAFC" stroke="#E2E8F0" stroke-width="4" />
  <rect x="274" y="156" width="92" height="12" rx="6" fill="#94A3B8" />
  <rect x="274" y="180" width="80" height="12" rx="6" fill="#CBD5E1" />
  <rect x="274" y="204" width="88" height="12" rx="6" fill="#CBD5E1" opacity="0.85" />
  <rect x="274" y="228" width="70" height="12" rx="6" fill="#CBD5E1" opacity="0.75" />
  <path d="M248 150V134H264" stroke="url(#accent)" stroke-width="10" stroke-linecap="round" stroke-linejoin="round" />
  <path d="M392 150V134H376" stroke="url(#accent)" stroke-width="10" stroke-linecap="round" stroke-linejoin="round" />
  <path d="M248 304V320H264" stroke="url(#accent)" stroke-width="10" stroke-linecap="round" stroke-linejoin="round" />
  <path d="M392 304V320H376" stroke="url(#accent)" stroke-width="10" stroke-linecap="round" stroke-linejoin="round" />
  <path
    d="M454 154V210C454 218 448 224 440 224H432V294C432 306 422 316 410 316H374C362 316 352 306 352 294V224H344C336 224 330 218 330 210V154"
    stroke="#0F172A"
    stroke-width="10"
    stroke-linecap="round"
    stroke-linejoin="round"
  />
  <path d="M346 154H438" stroke="#0F172A" stroke-width="10" stroke-linecap="round" />
  <path d="M366 252H418" stroke="url(#accent)" stroke-width="10" stroke-linecap="round" />
</svg>

