<svg xmlns="http://www.w3.org/2000/svg" width="640" height="400" viewBox="0 0 640 400" fill="none">
  <defs>
    <linearGradient id="bg" x1="24" y1="24" x2="616" y2="376" gradientUnits="userSpaceOnUse">
      <stop stop-color="#ECFDF5" />
      <stop offset="0.5" stop-color="#E0F2FE" />
      <stop offset="1" stop-color="#EEF2FF" />
    </linearGradient>
    <linearGradient id="accent" x1="190" y1="120" x2="460" y2="320" gradientUnits="userSpaceOnUse">
      <stop stop-color="#22C55E" />
      <stop offset="1" stop-color="#0EA5E9" />
    </linearGradient>
  </defs>
  <rect x="24" y="20" width="592" height="360" rx="40" fill="url(#bg)" />
  <circle cx="510" cy="120" r="70" fill="#BAE6FD" fill-opacity="0.6" />
  <circle cx="170" cy="120" r="56" fill="#A7F3D0" fill-opacity="0.55" />
  <rect x="170" y="98" width="300" height="244" rx="28" fill="#FFFFFF" fill-opacity="0.94" stroke="#D9E2F2" stroke-width="6" />
  <circle cx="320" cy="190" r="62" fill="#ECFDF5" stroke="#D9E2F2" stroke-width="6" />
  <circle cx="296" cy="178" r="8" fill="#0F172A" fill-opacity="0.7" />
  <circle cx="344" cy="178" r="8" fill="#0F172A" fill-opacity="0.7" />
  <path d="M300 208C312 220 328 220 340 208" stroke="#0F172A" stroke-width="10" stroke-linecap="round" />
  <path
    d="M274 150C252 154 236 170 236 190C236 208 248 224 266 232"
    stroke="url(#accent)"
    stroke-width="10"
    stroke-linecap="round"
  />
  <path
    d="M366 150C388 154 404 170 404 190C404 208 392 224 374 232"
    stroke="url(#accent)"
    stroke-width="10"
    stroke-linecap="round"
  />
  <path
    d="M320 270C320 270 352 246 352 220C352 202 338 190 320 200C302 190 288 202 288 220C288 246 320 270 320 270Z"
    fill="url(#accent)"
    fill-opacity="0.35"
    stroke="url(#accent)"
    stroke-width="8"
    stroke-linejoin="round"
  />
  <rect x="206" y="296" width="228" height="18" rx="9" fill="#94A3B8" opacity="0.8" />
</svg>

