<svg xmlns="http://www.w3.org/2000/svg" width="640" height="400" viewBox="0 0 640 400" fill="none">
  <defs>
    <linearGradient id="bg" x1="24" y1="24" x2="616" y2="376" gradientUnits="userSpaceOnUse">
      <stop stop-color="#ECFDF5" />
      <stop offset="0.55" stop-color="#EEF2FF" />
      <stop offset="1" stop-color="#E0F2FE" />
    </linearGradient>
    <linearGradient id="accent" x1="190" y1="120" x2="490" y2="320" gradientUnits="userSpaceOnUse">
      <stop stop-color="#22C55E" />
      <stop offset="1" stop-color="#2563EB" />
    </linearGradient>
  </defs>
  <rect x="24" y="20" width="592" height="360" rx="40" fill="url(#bg)" />
  <circle cx="500" cy="120" r="70" fill="#BAE6FD" fill-opacity="0.65" />
  <circle cx="160" cy="120" r="56" fill="#A7F3D0" fill-opacity="0.55" />
  <rect x="160" y="124" width="320" height="210" rx="28" fill="#FFFFFF" fill-opacity="0.94" stroke="#D9E2F2" stroke-width="6" />
  <rect x="198" y="98" width="244" height="70" rx="20" fill="#F8FAFC" stroke="#E2E8F0" stroke-width="4" />
  <rect x="212" y="194" width="216" height="54" rx="18" fill="#EEF2FF" stroke="#D9E2F2" stroke-width="4" />
  <rect x="228" y="212" width="150" height="12" rx="6" fill="#94A3B8" />
  <rect x="228" y="234" width="110" height="10" rx="5" fill="#CBD5E1" />
  <path
    d="M228 150H412"
    stroke="#94A3B8"
    stroke-width="10"
    stroke-linecap="round"
  />
  <path d="M228 124V86" stroke="#0F172A" stroke-width="10" stroke-linecap="round" />
  <path d="M228 86L252 110" stroke="#0F172A" stroke-width="10" stroke-linecap="round" />
  <path d="M252 110L270 92" stroke="#0F172A" stroke-width="10" stroke-linecap="round" />
  <circle cx="296" cy="118" r="10" fill="url(#accent)" />
  <circle cx="520" cy="250" r="34" fill="url(#accent)" fill-opacity="0.18" stroke="url(#accent)" stroke-width="8" />
  <path
    d="M520 232V268M502 250H538"
    stroke="#0F172A"
    stroke-width="10"
    stroke-linecap="round"
  />
</svg>

