<svg xmlns="http://www.w3.org/2000/svg" width="640" height="400" viewBox="0 0 640 400" fill="none">
  <defs>
    <linearGradient id="bg" x1="24" y1="24" x2="616" y2="376" gradientUnits="userSpaceOnUse">
      <stop stop-color="#E0F2FE" />
      <stop offset="0.55" stop-color="#EEF2FF" />
      <stop offset="1" stop-color="#ECFDF5" />
    </linearGradient>
    <linearGradient id="accent" x1="170" y1="120" x2="510" y2="320" gradientUnits="userSpaceOnUse">
      <stop stop-color="#0EA5E9" />
      <stop offset="1" stop-color="#22C55E" />
    </linearGradient>
  </defs>
  <rect x="24" y="20" width="592" height="360" rx="40" fill="url(#bg)" />
  <circle cx="500" cy="120" r="70" fill="#BAE6FD" fill-opacity="0.65" />
  <circle cx="160" cy="120" r="56" fill="#A7F3D0" fill-opacity="0.55" />
  <rect x="144" y="128" width="352" height="196" rx="28" fill="#FFFFFF" fill-opacity="0.94" stroke="#D9E2F2" stroke-width="6" />
  <rect x="170" y="156" width="300" height="124" rx="18" fill="#F8FAFC" stroke="#E2E8F0" stroke-width="4" />
  <rect x="222" y="324" width="196" height="22" rx="11" fill="#0F172A" fill-opacity="0.12" />
  <path
    d="M438 150C460 150 476 164 476 184C476 202 462 216 444 218H308C290 218 276 204 276 186C276 170 288 156 304 154C312 138 328 128 348 128C372 128 392 142 398 162C404 155 420 150 438 150Z"
    fill="url(#accent)"
    fill-opacity="0.25"
    stroke="url(#accent)"
    stroke-width="8"
    stroke-linejoin="round"
  />
  <path d="M330 250L362 218" stroke="#0F172A" stroke-width="10" stroke-linecap="round" />
  <path d="M350 256L370 236" stroke="#0F172A" stroke-width="10" stroke-linecap="round" />
  <path d="M372 216L394 194" stroke="#0F172A" stroke-width="10" stroke-linecap="round" />
  <path d="M410 176L430 156" stroke="#0F172A" stroke-width="10" stroke-linecap="round" opacity="0.55" />
</svg>

