<svg xmlns="http://www.w3.org/2000/svg" width="640" height="400" viewBox="0 0 640 400" fill="none">
  <defs>
    <linearGradient id="bg" x1="28" y1="20" x2="612" y2="380" gradientUnits="userSpaceOnUse">
      <stop stop-color="#EEF2FF" />
      <stop offset="0.55" stop-color="#E0F2FE" />
      <stop offset="1" stop-color="#ECFDF5" />
    </linearGradient>
    <linearGradient id="accent" x1="150" y1="120" x2="490" y2="320" gradientUnits="userSpaceOnUse">
      <stop stop-color="#2563EB" />
      <stop offset="1" stop-color="#22C55E" />
    </linearGradient>
  </defs>
  <rect x="24" y="20" width="592" height="360" rx="40" fill="url(#bg)" />
  <circle cx="150" cy="120" r="56" fill="#BAE6FD" fill-opacity="0.65" />
  <circle cx="510" cy="120" r="70" fill="#A7F3D0" fill-opacity="0.55" />
  <g fill="#FFFFFF" fill-opacity="0.94" stroke="#D9E2F2" stroke-width="6">
    <rect x="92" y="118" width="206" height="150" rx="22" />
    <rect x="342" y="118" width="206" height="150" rx="22" />
  </g>
  <rect x="118" y="144" width="154" height="18" rx="9" fill="#94A3B8" />
  <rect x="118" y="174" width="120" height="14" rx="7" fill="#CBD5E1" />
  <rect x="368" y="144" width="154" height="18" rx="9" fill="#94A3B8" />
  <rect x="368" y="174" width="120" height="14" rx="7" fill="#CBD5E1" />
  <rect x="140" y="274" width="110" height="16" rx="8" fill="#94A3B8" opacity="0.85" />
  <rect x="390" y="274" width="110" height="16" rx="8" fill="#94A3B8" opacity="0.85" />
  <path
    d="M320 212H294L312 194M320 212H346L328 230"
    stroke="url(#accent)"
    stroke-width="10"
    stroke-linecap="round"
    stroke-linejoin="round"
  />
  <rect x="170" y="292" width="50" height="18" rx="9" fill="#0F172A" fill-opacity="0.15" />
  <rect x="420" y="292" width="50" height="18" rx="9" fill="#0F172A" fill-opacity="0.15" />
</svg>

