<svg xmlns="http://www.w3.org/2000/svg" width="640" height="400" viewBox="0 0 640 400" fill="none">
  <defs>
    <linearGradient id="bg" x1="24" y1="24" x2="616" y2="376" gradientUnits="userSpaceOnUse">
      <stop stop-color="#EEF2FF" />
      <stop offset="0.55" stop-color="#ECFDF5" />
      <stop offset="1" stop-color="#E0F2FE" />
    </linearGradient>
    <linearGradient id="accent" x1="190" y1="110" x2="470" y2="330" gradientUnits="userSpaceOnUse">
      <stop stop-color="#22C55E" />
      <stop offset="1" stop-color="#0EA5E9" />
    </linearGradient>
  </defs>
  <rect x="24" y="20" width="592" height="360" rx="40" fill="url(#bg)" />
  <circle cx="500" cy="120" r="70" fill="#BAE6FD" fill-opacity="0.65" />
  <circle cx="160" cy="120" r="56" fill="#A7F3D0" fill-opacity="0.55" />
  <rect x="134" y="118" width="372" height="232" rx="28" fill="#FFFFFF" fill-opacity="0.94" stroke="#D9E2F2" stroke-width="6" />
  <rect x="170" y="156" width="140" height="110" rx="22" fill="#ECFDF5" stroke="#D9E2F2" stroke-width="4" />
  <rect x="326" y="156" width="140" height="110" rx="22" fill="#EEF2FF" stroke="#D9E2F2" stroke-width="4" />
  <path d="M184 186H296" stroke="#94A3B8" stroke-width="10" stroke-linecap="round" />
  <path d="M340 186H452" stroke="#94A3B8" stroke-width="10" stroke-linecap="round" />
  <path d="M184 214H260" stroke="#CBD5E1" stroke-width="10" stroke-linecap="round" />
  <path d="M340 214H416" stroke="#CBD5E1" stroke-width="10" stroke-linecap="round" />
  <rect x="170" y="284" width="296" height="42" rx="18" fill="#F8FAFC" stroke="#E2E8F0" stroke-width="4" />
  <path d="M196 305H204M212 305H220M228 305H236M244 305H252" stroke="#0F172A" stroke-width="8" stroke-linecap="round" />
  <path d="M270 305H278M286 305H294M302 305H310M318 305H326" stroke="#0F172A" stroke-width="8" stroke-linecap="round" opacity="0.7" />
  <path d="M352 305H360M368 305H376M384 305H392M400 305H408" stroke="#0F172A" stroke-width="8" stroke-linecap="round" opacity="0.5" />
  <circle cx="470" cy="292" r="12" fill="url(#accent)" />
  <path d="M470 286V298M464 292H476" stroke="#FFFFFF" stroke-width="6" stroke-linecap="round" />
</svg>

